<svg xmlns="http://www.w3.org/2000/svg" viewBox="0 0 180 180" width="180" height="180"><rect width="180" height="180" rx="36" fill="#0F6E56"/><path transform="translate(7.870,118.000) scale(0.080000,-0.080000)" d="M70 0V700H196V0Z" fill="#F1EFE8"/><path transform="translate(28.650,118.000) scale(0.080000,-0.080000)" d="M224 -14Q171 -14 129.0 4.5Q87 23 62.5 58.5Q38 94 38 145Q38 196 62.5 230.5Q87 265 130.5 282.5Q174 300 230 300H366V328Q366 363 344.0 385.5Q322 408 274 408Q227 408 204.0 386.5Q181 365 174 331L58 370Q70 408 96.5 439.5Q123 471 167.5 490.5Q212 510 276 510Q374 510 431.0 461.0Q488 412 488 319V134Q488 104 516 104H556V0H472Q435 0 411.0 18.0Q387 36 387 66V67H368Q364 55 350.0 35.5Q336 16 306.0 1.0Q276 -14 224 -14ZM246 88Q299 88 332.5 117.5Q366 147 366 196V206H239Q204 206 184.0 191.0Q164 176 164 149Q164 122 185.0 105.0Q206 88 246 88ZM205 552 279 700H421L315 552Z" fill="#F1EFE8"/><path transform="translate(74.390,118.000) scale(0.080000,-0.080000)" d="M124 -200V-90H394Q422 -90 422 -60V65H404Q396 48 379.0 31.0Q362 14 333.0 3.0Q304 -8 259 -8Q201 -8 157.5 18.5Q114 45 90.0 92.0Q66 139 66 200V496H192V210Q192 154 219.5 126.0Q247 98 298 98Q356 98 388.0 136.5Q420 175 420 244V496H546V-88Q546 -139 516.0 -169.5Q486 -200 436 -200Z" fill="#F1EFE8"/><path transform="translate(123.170,118.000) scale(0.080000,-0.080000)" d="M306 -14Q232 -14 173.0 16.0Q114 46 80.0 103.0Q46 160 46 240V256Q46 336 80.0 393.0Q114 450 173.0 480.0Q232 510 306 510Q380 510 439.0 480.0Q498 450 532.0 393.0Q566 336 566 256V240Q566 160 532.0 103.0Q498 46 439.0 16.0Q380 -14 306 -14ZM306 98Q364 98 402.0 135.5Q440 173 440 243V253Q440 323 402.5 360.5Q365 398 306 398Q248 398 210.0 360.5Q172 323 172 253V243Q172 173 210.0 135.5Q248 98 306 98Z" fill="#F1EFE8"/></svg>